<?xml version="1.0" encoding="utf-8"?>
<!-- Generator: Adobe Illustrator 24.1.0, SVG Export Plug-In . SVG Version: 6.00 Build 0)  -->
<svg version="1.1" xmlns="http://www.w3.org/2000/svg" xmlns:xlink="http://www.w3.org/1999/xlink" x="0px" y="0px"
	 viewBox="0 0 500 500" style="enable-background:new 0 0 500 500;" xml:space="preserve">
<style type="text/css">
	.st0{fill:none;stroke:#000000;stroke-width:16;stroke-miterlimit:10;}
	.st1{display:none;}
	.st2{display:inline;}
	.st3{fill:none;stroke:#D1D3D4;stroke-width:2;stroke-miterlimit:10;}
	.st4{display:inline;fill:none;stroke:#BCBEC0;stroke-width:4;stroke-miterlimit:10;}
	.st5{fill:none;stroke:#BCBEC0;stroke-width:4;stroke-miterlimit:10;}
	.st6{display:inline;fill:none;stroke:#D1D3D4;stroke-width:2;stroke-miterlimit:10;}
	.st7{display:none;opacity:0.35;fill:none;stroke:#000000;stroke-width:16;stroke-miterlimit:10;}
	.st8{fill:none;stroke:#000000;stroke-width:16;stroke-linejoin:bevel;stroke-miterlimit:10;}
	.st9{fill:none;stroke:#000000;stroke-width:16;stroke-linecap:square;stroke-miterlimit:10;}
	.st10{fill:none;stroke:#000000;stroke-width:16;stroke-linecap:round;stroke-miterlimit:10;}
	.st11{fill:none;stroke:#000000;stroke-width:8;stroke-miterlimit:10;}
</style>
<g id="Icons">
	<g>
		<g>
			<polyline class="st0" points="407.5,201.77 438.08,201.77 438.08,469.51 61.92,469.51 61.92,201.77 92.47,201.77 			"/>
			<g>
				<g>
					<path class="st0" d="M250.02,449.67c0-24.41-19.79-44.19-44.19-44.19H92.48V185.27h113.34c24.41,0,44.19,19.79,44.19,44.19
						V449.67z"/>
				</g>
				<g>
					<path class="st0" d="M249.98,449.67c0-24.41,19.79-44.19,44.19-44.19h113.34V185.27H294.18c-24.41,0-44.19,19.79-44.19,44.19"
						/>
				</g>
			</g>
			<polyline class="st0" points="97.72,405.48 97.72,435.98 402.28,435.98 402.28,405.48 			"/>
			<g>
				<line class="st0" x1="177.09" y1="141.62" x2="367.11" y2="141.62"/>
				<line class="st0" x1="379.69" y1="141.62" x2="399.97" y2="141.62"/>
				<line class="st0" x1="111.28" y1="141.62" x2="162.12" y2="141.62"/>
			</g>
		</g>
		<g>
			<line class="st0" x1="121.25" y1="309.61" x2="213.64" y2="309.61"/>
		</g>
		<g>
			<line class="st0" x1="121.25" y1="340.41" x2="213.64" y2="340.41"/>
		</g>
		<g>
			<line class="st0" x1="121.25" y1="371.2" x2="213.64" y2="371.2"/>
		</g>
		<rect x="128.89" y="216.31" class="st0" width="77.12" height="58.57"/>
		<g>
			<line class="st0" x1="380.03" y1="277.91" x2="287.63" y2="277.91"/>
		</g>
		<g>
			<line class="st0" x1="380.03" y1="247.11" x2="287.63" y2="247.11"/>
		</g>
		<g>
			<line class="st0" x1="380.03" y1="216.31" x2="287.63" y2="216.31"/>
		</g>
		
			<rect x="295.27" y="312.64" transform="matrix(-1 -1.224647e-16 1.224647e-16 -1 667.6588 683.8405)" class="st0" width="77.12" height="58.57"/>
		<path class="st0" d="M370.01,71.99C336.98,46,295.3,30.49,250,30.49c-45.3,0-86.98,15.51-120.01,41.5"/>
	</g>
</g>
<g id="Text" class="st1">
</g>
</svg>
