<?xml version="1.0" encoding="utf-8"?>
<!-- Generator: Adobe Illustrator 24.1.0, SVG Export Plug-In . SVG Version: 6.00 Build 0)  -->
<svg version="1.1" xmlns="http://www.w3.org/2000/svg" xmlns:xlink="http://www.w3.org/1999/xlink" x="0px" y="0px"
	 viewBox="0 0 500 500" style="enable-background:new 0 0 500 500;" xml:space="preserve">
<style type="text/css">
	.st0{fill:none;stroke:#000000;stroke-width:16;stroke-miterlimit:10;}
	.st1{display:none;}
	.st2{display:inline;}
	.st3{fill:none;stroke:#D1D3D4;stroke-width:2;stroke-miterlimit:10;}
	.st4{display:inline;fill:none;stroke:#BCBEC0;stroke-width:4;stroke-miterlimit:10;}
	.st5{fill:none;stroke:#BCBEC0;stroke-width:4;stroke-miterlimit:10;}
	.st6{display:inline;fill:none;stroke:#D1D3D4;stroke-width:2;stroke-miterlimit:10;}
	.st7{display:none;opacity:0.35;fill:none;stroke:#000000;stroke-width:16;stroke-miterlimit:10;}
	.st8{fill:none;stroke:#000000;stroke-width:16;stroke-linejoin:bevel;stroke-miterlimit:10;}
	.st9{fill:none;stroke:#000000;stroke-width:16;stroke-linecap:square;stroke-miterlimit:10;}
	.st10{fill:none;stroke:#000000;stroke-width:16;stroke-linecap:round;stroke-miterlimit:10;}
	.st11{fill:none;stroke:#000000;stroke-width:8;stroke-miterlimit:10;}
</style>
<g id="Icons">
	<g>
		<g>
			<path class="st0" d="M332.07,101.94v-2.13c0-21.03-17.05-38.08-38.08-38.08h0c-21.03,0-38.08,17.05-38.08,38.08v284.93"/>
			<path class="st0" d="M179.76,100.62V98.5c0-21.03,17.05-38.08,38.08-38.08h0c21.03,0,38.08,17.05,38.08,38.08"/>
			<path class="st0" d="M142.93,136.72v-2.09c0-20.66,16.75-37.41,37.41-37.41h0c20.66,0,37.41,16.75,37.41,37.41"/>
			<path class="st0" d="M295.5,136.72v-2.09c0-20.66,16.75-37.41,37.41-37.41h0c20.66,0,37.41,16.75,37.41,37.41"/>
			<path class="st9" d="M244.35,262.07l-13.1-2.51c-16.09-2.52-29.99-13.06-37.21-28.24l-2.35-4.94
				c-4.3-9.04-11.66-16.1-20.67-19.82l0,0c-2.8-1.16-5.73-1.98-8.71-2.44l-0.75-0.12"/>
			<path class="st9" d="M206.28,248.46c0,0-9.61,13.86-29.2,22.61"/>
			<g>
				<path class="st0" d="M198.89,319.89c31.48,0,57.01,25.52,57.01,57.01c0,31.48-25.52,57.01-57.01,57.01
					c-30.31,0-55.08-23.65-56.89-53.5c-20.25-5.12-35.23-23.46-35.23-45.3c0-7.62,1.84-14.81,5.07-21.17
					c-18.39-8.86-31.08-27.68-31.08-49.46c0-22.39,13.41-41.63,32.63-50.16c-4.21-7.01-6.63-15.22-6.63-23.99
					c0-25.81,21.75-47.38,47.37-47.38s39.88,6.73,54,19.6c5.17,4.71,15.03,17.32,15.03,17.32c6.03,7.09,14.1,11.69,22.86,13.01h9.87
					"/>
			</g>
			<path class="st0" d="M142.6,338.19c13.58-4.75,29.28-1.69,40.14,9.16c11.16,11.16,14.06,27.43,8.74,41.26"/>
			<path class="st0" d="M152.4,286.19c-13.56,0-24.56-11-24.56-24.56c0-13.56,11-24.56,24.56-24.56"/>
			<path class="st9" d="M267.65,262.07l13.1-2.51c16.09-2.52,29.99-13.06,37.21-28.24l2.35-4.94c4.3-9.04,11.66-16.1,20.67-19.82v0
				c2.8-1.16,5.73-1.98,8.71-2.44l0.75-0.12"/>
			<path class="st9" d="M305.72,248.46c0,0,9.61,13.86,29.2,22.61"/>
			<g>
				<path class="st0" d="M313.11,319.89c-31.48,0-57.01,25.52-57.01,57.01c0,31.48,25.52,57.01,57.01,57.01
					c30.31,0,55.08-23.65,56.89-53.5c20.25-5.12,35.23-23.46,35.23-45.3c0-7.62-1.84-14.81-5.07-21.17
					c18.39-8.86,31.08-27.68,31.08-49.46c0-22.39-13.41-41.63-32.63-50.16c4.21-7.01,6.63-15.22,6.63-23.99
					c0-25.81-21.75-47.38-47.37-47.38c-25.62,0-39.88,6.73-54,19.6c-5.17,4.71-15.03,17.32-15.03,17.32
					c-6.03,7.09-14.1,11.69-22.86,13.01h-9.87"/>
			</g>
			<path class="st0" d="M369.4,338.19c-13.58-4.75-29.28-1.69-40.14,9.16c-11.16,11.16-14.06,27.43-8.74,41.26"/>
			<path class="st0" d="M359.6,286.19c13.56,0,24.56-11,24.56-24.56c0-13.56-11-24.56-24.56-24.56"/>
		</g>
	</g>
</g>
<g id="Text" class="st1">
</g>
</svg>
