<?xml version="1.0" encoding="UTF-8"?>
<svg id="Layer_1" data-name="Layer 1" xmlns="http://www.w3.org/2000/svg" viewBox="0 0 1585.65 300">
  <defs>
    <style>
      .cls-1 {
        fill: #bdbec0;
        stroke: #bdbec0;
        stroke-miterlimit: 10;
        stroke-width: 2px;
      }

      .cls-2 {
        font-family: Arial-Black, Arial;
        font-size: 202px;
        letter-spacing: .05em;
      }

      .cls-2, .cls-3 {
        fill: #333132;
      }

      .cls-4 {
        fill: #ef3741;
      }
    </style>
  </defs>
  <polyline id="polyline84" class="cls-1" points="610.27 0 610.27 338.93 608.42 338.93 608.42 0"/>
  <g id="g92">
    <polygon id="polygon86" class="cls-4" points="727.84 250.03 727.84 194.03 727.85 194.05 671.84 194.05 671.84 146.04 727.85 146.04 727.84 146.01 727.84 89.99 775.85 89.99 775.85 146.01 775.84 146.03 831.85 146.03 831.85 194.04 775.84 194.04 775.85 194.03 775.85 250.03 727.84 250.03"/>
    <path id="path88" class="cls-4" d="M906.12,169.16c0-37.3,30.24-67.54,67.54-67.54,8.31,0,16.26,1.5,23.6,4.25-13.82-10.94-31.27-17.47-50.25-17.47-44.76,0-81.04,36.29-81.04,81.05s36.28,81.04,81.04,81.04c19.62,0,37.61-6.98,51.63-18.57-7.73,3.07-16.16,4.77-24.98,4.77-37.3,0-67.54-30.23-67.54-67.53"/>
    <path id="path90" class="cls-3" d="M1520.93,250.53c13.59,0,25.9-2.39,36.95-7.17,11.05-4.78,20.3-11.72,27.77-20.83l-23.29-21.5c-10.6,12.4-23.74,18.59-39.42,18.59-9.71,0-18.37-2.12-25.98-6.38-7.62-4.26-13.56-10.19-17.8-17.8-4.26-7.62-6.39-16.28-6.39-25.98s2.13-18.37,6.39-25.98c4.25-7.61,10.19-13.55,17.8-17.8,7.61-4.26,16.27-6.38,25.98-6.38,15.67,0,28.81,6.12,39.42,18.37l23.29-21.5c-7.47-8.96-16.68-15.82-27.66-20.6-10.97-4.78-23.25-7.17-36.84-7.17-16.13,0-30.65,3.47-43.56,10.41-12.92,6.94-23.07,16.58-30.46,28.89-7.39,12.32-11.08,26.25-11.08,41.77s3.7,29.45,11.08,41.77c7.39,12.32,17.54,21.95,30.46,28.89,12.92,6.93,27.36,10.4,43.34,10.4m-144.9-102.58c0,8.67-2.84,15.38-8.51,20.16-5.68,4.78-13.96,7.17-24.86,7.17h-29.56v-54.65h29.56c10.9,0,19.19,2.35,24.86,7.05,5.67,4.71,8.51,11.46,8.51,20.27m39.64,99.89l-35.16-50.39c10.3-4.48,18.25-10.94,23.85-19.37,5.6-8.44,8.4-18.48,8.4-30.12s-2.76-21.72-8.28-30.23c-5.53-8.51-13.41-15.08-23.63-19.71-10.23-4.63-22.28-6.94-36.17-6.94h-67.86V247.86h36.28v-43.67h33.37l30.23,43.67h38.97v-.02Zm-170.21-127.66v-29.11h-118.48V247.85h36.28v-57.11h72.56v-29.11h-72.56v-41.43h82.2v-.02Zm-191.93,127.66h36.28V91.07h-36.28V247.84Z"/>
  </g>
  <g>
    <path class="cls-3" d="M54.7,120.22l-26.7-5.6S1.5,120.22,1.3,120.22s0,.2,0,.2l.2,1.5h0s.5,0,.7,.2l.5,2.2s0,.2,.2,.2H53.3c.3,0,.2,0,.2,0l.5-2.2c.2-.5,.7-.5,.7-.5h0l.2-1.5v-.2h-.2v.1Z"/>
    <path class="cls-3" d="M52,125.12h0v-.8h-4.2v.7h.2v.2s0,.7,.5,1v.2h-.2v.4h0v15l-.2,.2h0v.2h-.2v.5h3.9v-.5h-.2l-.2-.2v-15h0v-.4h0s-.2-.2,0-.2c.5-.2,.5-.7,.5-1v-.1h.2v-.2h-.1Z"/>
    <path class="cls-3" d="M43.2,125.12h0v-.8h-4.2v.7h.3v.2s0,.7,.5,1v.2h-.2v.4h0v15l-.2,.2h0v.2h-.2v.5h3.9v-.5h-.2l-.2-.2v-15h0v-.4h0s-.2-.2,0-.2c.5-.2,.5-.7,.5-1v-.1h.2v-.2h-.2Z"/>
    <path class="cls-3" d="M34.6,125.12h0v-.8h-4.2v.7h.2v.2s0,.7,.5,1v.2h-.2v.4h0v15l-.2,.2h0v.2h-.2v.5h3.9v-.5h-.2l-.2-.2v-15h0v-.4h-.2s-.2-.2,0-.2c.2-.2,.5-.7,.5-1v-.1h.2l.1-.2Z"/>
    <path class="cls-3" d="M25.8,125.12h0v-.8h-4.2v.7h.2v.2s0,.7,.5,1v.2h-.2v.4h0v15l-.2,.2h0v.2h-.2v.5h3.9v-.5h-.3l-.2-.2v-15h0v-.4h0s-.2-.2,0-.2c.5-.2,.5-.7,.5-1v-.1h.2v-.2Z"/>
    <path class="cls-3" d="M17,125.12h0v-.8h-4.2v.7h.2v.2s0,.7,.5,1v.2h-.2v.4h0v15l-.2,.2h0v.2h-.2v.5h3.9v-.5h-.2l-.2-.2v-15h0v-.4h-.2s-.2-.2,0-.2c.5-.2,.5-.7,.5-1v-.1h.2l.1-.2Z"/>
    <path class="cls-3" d="M8.4,125.12h0v-.8H4.2v.7h.2v.2s0,.7,.5,1v.2h-.2v.4h0v15l-.2,.2h0v.2h-.2v.5h3.9v-.5h-.2l-.2-.2v-15h0v-.4h-.2s-.2-.2,0-.2c.2-.2,.5-.7,.5-1v-.1h.2l.1-.2Z"/>
    <path class="cls-3" d="M40.5,109.12h-.5v-.5h-.5v-.5h-.2s-.2,0-.2-.2c0-.5,.2-4.7-2-7.4-1.7-2.5-3.9-3.7-5.2-4.4,0-.5-.7-.7-1.2-1-.2,0-.2-.2-.2-.2v-.2c0-.2,.2-.2,.5-.2h.2v-.5s0-.2-.2-.2h-.5s-.2,0-.2-.2v-.2q0-.2-.2-.2v-2.9h.2v-.2h-.2v-.4h0v-.5h-.4l-1-1h0s0-.2-.2-.2,0-.2,0-.2h0v-.2l-.2-.5h0s-.2,.2-.2,.5v.2h0v.2q-.2,0-.2,.2h0s-.5,.7-1,1h-.4v.2h0v.4h-.2v.2h.2v2.9l-.2,.2v.2s0,.2-.2,.2h-.5s-.2,0-.2,.2v.5h.2c.2,0,.5,0,.5,.2v.2c0,.2-.2,.2-.2,.2-.2,0-1,.2-1.2,1-1.2,.5-3.7,2-5.2,4.4-2.2,2.9-2,6.9-2,7.4,0,0,0,.2-.2,.2h-.2v.5h-.5v.5h-.5v.5h0c.2,0,.5,.2,.5,.5,0,.5,.2,.5,.5,.5v1.7c0,.5-.2,.5-.5,.5h0v1.7l12.3-2.7h0l12.3,2.7v-1.7h0c-.2,0-.5-.2-.5-.5v-1.7s.5,0,.5-.5c0-.2,.2-.5,.5-.5h0v-.5h0l-1.2,.3Z"/>
    <polygon class="cls-3" points="54 144.72 52 144.72 52 143.22 4.2 143.22 4.2 144.72 2.2 144.72 2.2 148.42 0 148.42 0 151.82 56.2 151.82 56.2 148.42 54 148.42 54 144.72"/>
  </g>
  <text class="cls-2" transform="translate(76.6 229.65)"><tspan x="0" y="0">UCL</tspan></text>
</svg>