<?xml version="1.0" encoding="utf-8"?>
<!-- Generator: Adobe Illustrator 24.1.0, SVG Export Plug-In . SVG Version: 6.00 Build 0)  -->
<svg version="1.1" xmlns="http://www.w3.org/2000/svg" xmlns:xlink="http://www.w3.org/1999/xlink" x="0px" y="0px"
	 viewBox="0 0 500 500" style="enable-background:new 0 0 500 500;" xml:space="preserve">
<style type="text/css">
	.st0{fill:none;stroke:#000000;stroke-width:16;stroke-miterlimit:10;}
	.st1{display:none;}
	.st2{display:inline;}
	.st3{fill:none;stroke:#D1D3D4;stroke-width:2;stroke-miterlimit:10;}
	.st4{display:inline;fill:none;stroke:#BCBEC0;stroke-width:4;stroke-miterlimit:10;}
	.st5{fill:none;stroke:#BCBEC0;stroke-width:4;stroke-miterlimit:10;}
	.st6{display:inline;fill:none;stroke:#D1D3D4;stroke-width:2;stroke-miterlimit:10;}
	.st7{display:none;opacity:0.35;fill:none;stroke:#000000;stroke-width:16;stroke-miterlimit:10;}
	.st8{fill:none;stroke:#000000;stroke-width:16;stroke-linejoin:bevel;stroke-miterlimit:10;}
	.st9{fill:none;stroke:#000000;stroke-width:16;stroke-linecap:square;stroke-miterlimit:10;}
	.st10{fill:none;stroke:#000000;stroke-width:16;stroke-linecap:round;stroke-miterlimit:10;}
	.st11{fill:none;stroke:#000000;stroke-width:8;stroke-miterlimit:10;}
</style>
<g id="Icons">
	<g>
		<g>
			<circle class="st0" cx="250" cy="144.41" r="25.98"/>
			<path class="st0" d="M304.86,144.41c0,30.3-54.86,95.87-54.86,95.87s-54.86-65.57-54.86-95.87S219.7,89.56,250,89.56
				S304.86,114.12,304.86,144.41z"/>
		</g>
		<g>
			<polyline class="st0" points="282.03,196.78 300.83,191.17 402.48,221.52 402.48,394.44 300.83,364.09 199.17,394.44 
				97.52,364.09 97.52,191.17 199.17,221.52 228.82,212.67 			"/>
		</g>
		<g>
			<polyline class="st0" points="97.52,277.63 199.17,307.98 300.83,277.63 402.48,307.98 			"/>
		</g>
		<line class="st0" x1="300.83" y1="191.17" x2="300.83" y2="364.09"/>
		<line class="st0" x1="199.43" y1="221.7" x2="199.43" y2="394.62"/>
	</g>
</g>
<g id="Text" class="st1">
</g>
</svg>
